<?xml version="1.0" encoding="utf-8"?>
<!-- Generator: Adobe Illustrator 24.0.3, SVG Export Plug-In . SVG Version: 6.00 Build 0)  -->
<svg version="1.1" id="レイヤー_1" xmlns="http://www.w3.org/2000/svg" xmlns:xlink="http://www.w3.org/1999/xlink" x="0px"
	 y="0px" viewBox="0 0 1480 1570.9" style="enable-background:new 0 0 1480 1570.9;" xml:space="preserve">
<style type="text/css">
	.st0{fill:none;stroke:#ffffff;stroke-width:5;stroke-linecap:round;stroke-linejoin:round;}
</style>
<line class="st0" x1="672.8" y1="941.6" x2="554.7" y2="1059.7"/>
<circle class="st0" cx="658.3" cy="980.9" r="7.8"/>
<path class="st0" d="M613.5,1002.5l18.8,19.2l12.3-12.3c2.5-2.5,6.6-2.5,9.1,0l29.1,29.1"/>
<path class="st0" d="M556.7,1028.3l36.9-36.9c2.5-2.5,6.6-2.5,9.1,0l2.6,2.7"/>
<g>
	<path d="M547.5,1100.8l-10.9-16.6v16.6h-3.6v-23.6h3.3l10.9,16.5v-16.5h3.6v23.6H547.5z"/>
	<path d="M574.1,1098.5c-1.6,1.6-3.7,2.5-6.2,2.5c-2.5,0-4.6-0.9-6.2-2.5c-2.3-2.3-2.3-4.9-2.3-9.5s0-7.1,2.3-9.5
		c1.6-1.6,3.7-2.5,6.2-2.5c2.5,0,4.6,0.9,6.2,2.5c2.3,2.3,2.3,4.9,2.3,9.5S576.4,1096.1,574.1,1098.5z M571.4,1081.7
		c-0.8-0.9-2.1-1.5-3.5-1.5c-1.4,0-2.7,0.6-3.5,1.5c-1.2,1.3-1.4,2.6-1.4,7.3s0.2,6.1,1.4,7.3c0.8,0.9,2.1,1.5,3.5,1.5
		c1.4,0,2.7-0.6,3.5-1.5c1.2-1.3,1.4-2.6,1.4-7.3S572.6,1082.9,571.4,1081.7z"/>
	<path d="M596.2,1100.8v-23.6h3.6v23.6H596.2z"/>
	<path d="M626.5,1100.8V1085l-5.4,11.5h-2.6l-5.6-11.5v15.8h-3.6v-23.6h3.6l6.9,14.7l6.8-14.7h3.6v23.6H626.5z"/>
	<path d="M653,1100.8l-1.6-4.7h-9.3l-1.6,4.7h-3.8l8.6-23.6h2.9l8.6,23.6H653z M646.8,1082.5l-3.7,10.5h7.2L646.8,1082.5z"/>
	<path d="M677.2,1098.3c-1.8,1.9-4,2.7-6.5,2.7c-2.4,0-4.6-0.9-6.2-2.5c-2.3-2.3-2.3-4.9-2.3-9.5s0-7.1,2.3-9.5
		c1.6-1.6,3.7-2.5,6.2-2.5c5,0,7.9,3.3,8.6,7.3h-3.6c-0.6-2.6-2.3-4.1-5-4.1c-1.4,0-2.6,0.6-3.5,1.5c-1.2,1.3-1.4,2.6-1.4,7.3
		s0.3,6.1,1.4,7.3c0.8,0.9,2.1,1.4,3.5,1.4c1.6,0,2.9-0.6,3.8-1.7c0.9-1,1.2-2.2,1.2-3.7v-1.3h-5v-3h8.6v3.6
		C679.4,1094.7,678.8,1096.6,677.2,1098.3z"/>
	<path d="M687.9,1100.8v-23.6H703v3.2h-11.5v6.9h9.8v3.2h-9.8v7.1H703v3.2H687.9z"/>
</g>
<path class="st0" d="M567.1,1049.2h102.1c7.7,0,14-6.3,14-14v-66.4c0-7.7-6.3-14-14-14H661"/>
<path class="st0" d="M645.3,954.8h-75.2c-7.7,0-14,6.3-14,14v66.4c0,3.4,0.9,5.1,2.1,6.9"/>
</svg>
