<svg xmlns="http://www.w3.org/2000/svg" xml:space="preserve" stroke-miterlimit="10" style="fill-rule:nonzero;clip-rule:evenodd;stroke-linecap:round;stroke-linejoin:round" viewBox="0 0 1920 1080">
  <defs>
    <linearGradient id="a" x1="-17.7475" x2="149.672" y1="430.939" y2="430.939" gradientTransform="translate(238.889 -182.117) scale(1.81167)" gradientUnits="userSpaceOnUse">
      <stop offset="0" stop-color="#c7b489"/>
      <stop offset="1" stop-color="#693a04"/>
    </linearGradient>
    <linearGradient id="b" x1="134.444" x2="199.784" y1="437.781" y2="437.781" gradientTransform="translate(238.889 -182.117) scale(1.81167)" gradientUnits="userSpaceOnUse">
      <stop offset="0" stop-color="#c7b489"/>
      <stop offset="1" stop-color="#693a04"/>
    </linearGradient>
    <linearGradient id="c" x1="211.178" x2="298.841" y1="450.625" y2="450.625" gradientTransform="translate(238.889 -182.117) scale(1.81167)" gradientUnits="userSpaceOnUse">
      <stop offset="0" stop-color="#c7b489"/>
      <stop offset="1" stop-color="#693a04"/>
    </linearGradient>
    <linearGradient id="d" x1="378.598" x2="504.86" y1="452.519" y2="452.519" gradientTransform="translate(284.91 -178.684) scale(1.81167)" gradientUnits="userSpaceOnUse">
      <stop offset="0" stop-color="#c7b489"/>
      <stop offset="1" stop-color="#693a04"/>
    </linearGradient>
    <linearGradient id="e" x1="518.114" x2="623.216" y1="451.993" y2="451.993" gradientTransform="translate(255.414 -182.117) scale(1.81167)" gradientUnits="userSpaceOnUse">
      <stop offset="0" stop-color="#c7b489"/>
      <stop offset="1" stop-color="#693a04"/>
    </linearGradient>
    <linearGradient id="f" x1="640.191" x2="705.531" y1="437.781" y2="437.781" gradientTransform="translate(247.566 -181.354) scale(1.81167)" gradientUnits="userSpaceOnUse">
      <stop offset="0" stop-color="#c7b489"/>
      <stop offset="1" stop-color="#693a04"/>
    </linearGradient>
    <linearGradient id="g" x1="720.645" x2="825.748" y1="451.993" y2="451.993" gradientTransform="translate(238.889 -182.117) scale(1.81167)" gradientUnits="userSpaceOnUse">
      <stop offset="0" stop-color="#c7b489"/>
      <stop offset="1" stop-color="#693a04"/>
    </linearGradient>
    <linearGradient id="h" x1="559.873" x2="659.203" y1="449.326" y2="449.326" gradientTransform="translate(-223.453 -186.893) scale(1.81167)" gradientUnits="userSpaceOnUse">
      <stop offset="0" stop-color="#c7b489"/>
      <stop offset="1" stop-color="#693a04"/>
    </linearGradient>
    <linearGradient id="i" x1="582.847" x2="640.695" y1="333.459" y2="333.459" gradientTransform="translate(-223.453 -186.893) scale(1.81167)" gradientUnits="userSpaceOnUse">
      <stop offset="0" stop-color="#c7b489"/>
      <stop offset="1" stop-color="#693a04"/>
    </linearGradient>
    <linearGradient id="j" x1="559.203" x2="651.331" y1="356.872" y2="356.872" gradientTransform="translate(-223.453 -186.893) scale(1.81167)" gradientUnits="userSpaceOnUse">
      <stop offset="0" stop-color="#c7b489"/>
      <stop offset="1" stop-color="#693a04"/>
    </linearGradient>
  </defs>
  <g stroke="#ccc3a4" stroke-linecap="butt" stroke-width="1.17">
    <path fill="url(#h)" d="M888.477 521.216c-57.55 0-97.625 48.754-97.625 107.196 0 60.226 39.821 104.644 98.263 104.644 33.459 0 57.131-11.969 77.206-42.751 1.785-2.676 2.553-3.128 2.553-4.466 0-3.569-5.873-7.019-7.657-7.019-1.339 0-2.936 1.214-3.829 2.552-15.614 21.414-32.511 31.266-60.616 31.266-29.444 0-65.721-29.483-65.722-86.14 0-8.03.83-13.659 1.277-17.228 39.258-.892 85.808-.7 129.528.638 2.677 0 4.342.763 7.019-1.914 2.23-3.123 1.914-4.534 1.914-7.657-1.338-29.89-26.1-79.12-82.311-79.121Zm0 12.762c27.659 0 39.882 26.763 42.112 50.408.447 4.015-.897 7.018-4.466 7.018-32.567 2.231-58.678 2.169-91.244 1.276 8.03-35.243 27.277-58.702 53.598-58.702"/>
    <path fill="url(#i)" d="M859.173 498.719s-53.88 21.388-2.688-9.643c24.343-14.755 30.535-12.785 45.482-45.955 17.086-37.915 4.481-115.683 4.481-115.683s88.143 137.981-33.663 169.663c-81.933 21.31-13.612 1.618-13.612 1.618Z"/>
    <path fill="url(#j)" d="M861.408 504.174c10.418-5.472 22.3-11.091 36.008-16.384 98.277-37.944 44.378-145.877 44.378-145.877s17.898 92.111-81.198 143.271c-69.744 36.008-70.96 92.183-70.96 92.183s.924-35.983 71.772-73.193"/>
  </g>
</svg>
