<?xml version="1.0" encoding="UTF-8" standalone="no"?>
<!DOCTYPE svg PUBLIC "-//W3C//DTD SVG 1.1//EN" "http://www.w3.org/Graphics/SVG/1.1/DTD/svg11.dtd">
<!-- Created with Vectornator (http://vectornator.io/) -->
<svg height="1080.0px" stroke-miterlimit="10" style="fill-rule:nonzero;clip-rule:evenodd;stroke-linecap:round;stroke-linejoin:round;" version="1.1" viewBox="0 0 1920 1080" width="1920.0px" xml:space="preserve" xmlns="http://www.w3.org/2000/svg" xmlns:xlink="http://www.w3.org/1999/xlink">
<defs>
<linearGradient gradientTransform="matrix(1.81167 0 0 1.81167 238.889 -182.117)" gradientUnits="userSpaceOnUse" id="LinearGradient" x1="-17.7475" x2="149.672" y1="430.939" y2="430.939">
<stop offset="0" stop-color="#c7b489"/>
<stop offset="1" stop-color="#693a04"/>
</linearGradient>
<linearGradient gradientTransform="matrix(1.81167 0 0 1.81167 238.889 -182.117)" gradientUnits="userSpaceOnUse" id="LinearGradient_2" x1="134.444" x2="199.784" y1="437.781" y2="437.781">
<stop offset="0" stop-color="#c7b489"/>
<stop offset="1" stop-color="#693a04"/>
</linearGradient>
<linearGradient gradientTransform="matrix(1.81167 0 0 1.81167 238.889 -182.117)" gradientUnits="userSpaceOnUse" id="LinearGradient_3" x1="211.178" x2="298.841" y1="450.625" y2="450.625">
<stop offset="0" stop-color="#c7b489"/>
<stop offset="1" stop-color="#693a04"/>
</linearGradient>
<linearGradient gradientTransform="matrix(1.81167 0 0 1.81167 284.91 -178.684)" gradientUnits="userSpaceOnUse" id="LinearGradient_4" x1="378.598" x2="504.86" y1="452.519" y2="452.519">
<stop offset="0" stop-color="#c7b489"/>
<stop offset="1" stop-color="#693a04"/>
</linearGradient>
<linearGradient gradientTransform="matrix(1.81167 0 0 1.81167 255.414 -182.117)" gradientUnits="userSpaceOnUse" id="LinearGradient_5" x1="518.114" x2="623.216" y1="451.993" y2="451.993">
<stop offset="0" stop-color="#c7b489"/>
<stop offset="1" stop-color="#693a04"/>
</linearGradient>
<linearGradient gradientTransform="matrix(1.81167 0 0 1.81167 247.566 -181.354)" gradientUnits="userSpaceOnUse" id="LinearGradient_6" x1="640.191" x2="705.531" y1="437.781" y2="437.781">
<stop offset="0" stop-color="#c7b489"/>
<stop offset="1" stop-color="#693a04"/>
</linearGradient>
<linearGradient gradientTransform="matrix(1.81167 0 0 1.81167 238.889 -182.117)" gradientUnits="userSpaceOnUse" id="LinearGradient_7" x1="720.645" x2="825.748" y1="451.993" y2="451.993">
<stop offset="0" stop-color="#c7b489"/>
<stop offset="1" stop-color="#693a04"/>
</linearGradient>
<linearGradient gradientTransform="matrix(1.81167 0 0 1.81167 -223.453 -186.893)" gradientUnits="userSpaceOnUse" id="LinearGradient_8" x1="559.873" x2="659.203" y1="449.326" y2="449.326">
<stop offset="0" stop-color="#c7b489"/>
<stop offset="1" stop-color="#693a04"/>
</linearGradient>
<linearGradient gradientTransform="matrix(1.81167 0 0 1.81167 -223.453 -186.893)" gradientUnits="userSpaceOnUse" id="LinearGradient_9" x1="582.847" x2="640.695" y1="333.459" y2="333.459">
<stop offset="0" stop-color="#c7b489"/>
<stop offset="1" stop-color="#693a04"/>
</linearGradient>
<linearGradient gradientTransform="matrix(1.81167 0 0 1.81167 -223.453 -186.893)" gradientUnits="userSpaceOnUse" id="LinearGradient_10" x1="559.203" x2="651.331" y1="356.872" y2="356.872">
<stop offset="0" stop-color="#c7b489"/>
<stop offset="1" stop-color="#693a04"/>
</linearGradient>
</defs>
<g id="レイヤー-1">
<g opacity="1">
<g opacity="1">
<path d="M291.41 642.467L408.943 642.467L426.636 690.527C430.006 700.063 431.691 707.692 431.691 712.269C431.691 723.331 422.844 727.908 401.36 728.671L401.36 738.206L510.045 738.206L510.045 728.671C485.612 727.908 477.608 720.66 465.813 689.383L376.505 458.997L350.387 461.667L260.658 676.796C244.65 715.32 230.749 728.671 206.737 728.671L206.737 738.206L305.312 738.206L305.312 728.671C280.879 727.908 269.926 721.805 269.926 708.073C269.926 700.826 272.875 689.001 277.93 676.796L291.41 642.467ZM403.466 628.354L297.308 628.354L352.072 494.852L403.466 628.354Z" fill="url(#LinearGradient)" fill-rule="nonzero" opacity="1" stroke="none"/>
<path d="M544.383 550.922L594.934 550.922L594.934 540.624L544.383 540.624C544.383 515.449 544.804 500.955 545.647 484.553L526.268 489.512C519.95 525.366 507.312 540.242 482.457 542.15L482.457 550.922L508.997 550.922L508.997 674.507C508.997 702.733 510.261 711.125 514.894 718.753C522.056 730.959 537.643 737.444 558.284 737.444C573.45 737.444 586.93 734.392 600.832 727.908L597.041 717.99C587.773 722.949 579.769 724.856 570.501 724.856C560.812 724.856 554.072 722.186 549.859 716.846C545.647 711.506 544.383 701.589 544.383 679.084L544.383 550.922Z" fill="url(#LinearGradient_2)" fill-rule="nonzero" opacity="1" stroke="none"/>
<path d="M623.159 540.624L623.159 549.015C647.171 549.015 652.226 554.737 652.226 583.344L652.226 685.569C652.226 721.042 649.698 724.093 621.474 724.856L621.474 733.248L717.943 733.248L717.943 724.856C689.718 724.093 687.612 721.423 687.612 685.569L687.612 625.683C687.612 605.468 691.403 589.829 698.986 577.241C707.833 562.747 719.628 554.355 730.581 554.355C737.321 554.355 739.848 556.644 742.376 565.036C744.904 572.283 748.695 574.571 757.963 574.571C771.443 574.571 780.29 568.468 780.29 558.933C780.29 545.582 766.388 535.284 748.274 535.284C723.419 535.284 700.671 551.685 686.769 580.674C686.769 575.334 686.769 571.138 686.769 568.468C686.769 560.458 686.348 555.5 685.506 536.428L623.159 540.624Z" fill="url(#LinearGradient_3)" fill-rule="nonzero" opacity="1" stroke="none"/>
<path d="M1092.97 707.692L1043.68 585.633C1040.31 578.004 1037.78 568.85 1037.78 565.417C1037.78 557.025 1046.21 552.83 1065.59 552.448L1065.59 544.057L970.803 544.057L970.803 552.448C988.918 552.83 995.237 557.788 1004.08 579.911L1070.64 738.206L1094.65 738.206L1155.32 590.592C1167.11 561.984 1177.22 553.211 1199.55 552.448L1199.55 544.057L1113.19 544.057L1113.19 552.448C1135.94 553.211 1145.63 557.788 1145.63 567.706C1145.63 571.901 1143.52 580.674 1140.57 587.922L1092.97 707.692Z" fill="url(#LinearGradient_4)" fill-rule="nonzero" opacity="1" stroke="none"/>
<path d="M1381.11 625.683C1380.26 603.179 1378.58 594.024 1374.37 583.726C1361.31 552.83 1332.24 535.284 1293.9 535.284C1234.51 535.284 1194.07 577.623 1194.07 639.415C1194.07 697.774 1235.35 738.206 1295.59 738.206C1336.87 738.206 1365.52 721.805 1384.48 686.713L1374.79 681.754C1357.94 710.743 1335.19 724.856 1305.28 724.856C1274.95 724.856 1254.31 711.125 1242.09 682.899C1235.35 667.26 1232.82 652.002 1232.4 625.683L1381.11 625.683ZM1233.24 615.385C1235.77 595.55 1238.3 585.633 1244.62 574.571C1255.99 555.118 1272.84 544.82 1293.06 544.82C1312.86 544.82 1327.18 554.355 1336.45 573.046C1341.93 584.107 1344.03 595.169 1344.46 615.385L1233.24 615.385Z" fill="url(#LinearGradient_5)" fill-rule="nonzero" opacity="1" stroke="none"/>
<path d="M1469.31 551.685L1519.86 551.685L1519.86 541.387L1469.31 541.387C1469.31 516.212 1469.73 501.718 1470.57 485.316L1451.19 490.275C1444.87 526.129 1432.23 541.005 1407.38 542.912L1407.38 551.685L1433.92 551.685L1433.92 675.27C1433.92 703.496 1435.18 711.888 1439.82 719.516C1446.98 731.722 1462.57 738.206 1483.21 738.206C1498.37 738.206 1511.85 735.155 1525.75 728.671L1521.96 718.753C1512.7 723.712 1504.69 725.619 1495.42 725.619C1485.73 725.619 1478.99 722.949 1474.78 717.609C1470.57 712.269 1469.31 702.352 1469.31 679.847L1469.31 551.685Z" fill="url(#LinearGradient_6)" fill-rule="nonzero" opacity="1" stroke="none"/>
<path d="M1731.5 625.683C1730.66 603.179 1728.97 594.024 1724.76 583.726C1711.7 552.83 1682.63 535.284 1644.3 535.284C1584.9 535.284 1544.46 577.623 1544.46 639.415C1544.46 697.774 1585.74 738.206 1645.98 738.206C1687.27 738.206 1715.91 721.805 1734.87 686.713L1725.18 681.754C1708.33 710.743 1685.58 724.856 1655.67 724.856C1625.34 724.856 1604.7 711.125 1592.48 682.899C1585.74 667.26 1583.22 652.002 1582.79 625.683L1731.5 625.683ZM1583.64 615.385C1586.16 595.55 1588.69 585.633 1595.01 574.571C1606.39 555.118 1623.24 544.82 1643.46 544.82C1663.26 544.82 1677.58 554.355 1686.85 573.046C1692.32 584.107 1694.43 595.169 1694.85 615.385L1583.64 615.385Z" fill="url(#LinearGradient_7)" fill-rule="nonzero" opacity="1" stroke="none"/>
</g>
<g opacity="1">
<path d="M888.477 521.216C830.927 521.216 790.852 569.97 790.852 628.412C790.852 688.638 830.673 733.056 889.115 733.056C922.574 733.056 946.246 721.087 966.321 690.305C968.106 687.629 968.874 687.177 968.874 685.839C968.874 682.27 963.001 678.82 961.217 678.82C959.878 678.82 958.281 680.034 957.388 681.372C941.774 702.786 924.877 712.638 896.772 712.638C867.328 712.638 831.051 683.155 831.05 626.498C831.05 618.468 831.88 612.839 832.327 609.27C871.585 608.378 918.135 608.57 961.855 609.908C964.532 609.908 966.197 610.671 968.874 607.994C971.104 604.871 970.788 603.46 970.788 600.337C969.45 570.447 944.688 521.217 888.477 521.216ZM888.477 533.978C916.136 533.978 928.359 560.741 930.589 584.386C931.036 588.401 929.692 591.404 926.123 591.404C893.556 593.635 867.445 593.573 834.879 592.68C842.909 557.437 862.156 533.978 888.477 533.978" fill="url(#LinearGradient_8)" fill-rule="nonzero" opacity="1" stroke="#ccc3a4" stroke-linecap="butt" stroke-linejoin="round" stroke-width="1.17"/>
<path d="M859.173 498.719C859.173 498.719 805.293 520.107 856.485 489.076C880.828 474.321 887.02 476.291 901.967 443.121C919.053 405.206 906.448 327.438 906.448 327.438C906.448 327.438 994.591 465.419 872.785 497.101C790.852 518.411 859.173 498.719 859.173 498.719Z" fill="url(#LinearGradient_9)" fill-rule="nonzero" opacity="1" stroke="#ccc3a4" stroke-linecap="butt" stroke-linejoin="round" stroke-width="1.17"/>
<path d="M861.408 504.174C871.826 498.702 883.708 493.083 897.416 487.79C995.693 449.846 941.794 341.913 941.794 341.913C941.794 341.913 959.692 434.024 860.596 485.184C790.852 521.192 789.636 577.367 789.636 577.367C789.636 577.367 790.56 541.384 861.408 504.174" fill="url(#LinearGradient_10)" fill-rule="nonzero" opacity="1" stroke="#ccc3a4" stroke-linecap="butt" stroke-linejoin="round" stroke-width="1.17"/>
</g>
</g>
</g>
</svg>
