<?xml version="1.0" encoding="UTF-8"?>
<svg id="_レイヤー_1" data-name="レイヤー 1" xmlns="http://www.w3.org/2000/svg" xmlns:xlink="http://www.w3.org/1999/xlink" viewBox="0 0 1920 1080">
  <defs>
    <style>
      .cls-1 {
        fill: url(#_名称未設定グラデーション_2);
      }

      .cls-1, .cls-2, .cls-3, .cls-4, .cls-5, .cls-6, .cls-7, .cls-8, .cls-9, .cls-10, .cls-11, .cls-12, .cls-13, .cls-14 {
        stroke-width: 0px;
      }

      .cls-2 {
        fill: url(#_名称未設定グラデーション_5);
      }

      .cls-3 {
        fill: url(#_名称未設定グラデーション_10);
      }

      .cls-4 {
        fill: url(#_名称未設定グラデーション_4);
      }

      .cls-5 {
        fill: #ccc3a4;
      }

      .cls-6 {
        fill: url(#_名称未設定グラデーション);
      }

      .cls-15 {
        fill: none;
        stroke: #b8996e;
        stroke-linecap: round;
        stroke-linejoin: round;
        stroke-width: 3px;
      }

      .cls-7 {
        fill: url(#_名称未設定グラデーション-3);
      }

      .cls-8 {
        fill: url(#_名称未設定グラデーション_3);
      }

      .cls-9 {
        fill: url(#_名称未設定グラデーション_6);
      }

      .cls-10 {
        fill: url(#_名称未設定グラデーション_8);
      }

      .cls-11 {
        fill: url(#_名称未設定グラデーション-2);
      }

      .cls-12 {
        fill: url(#_名称未設定グラデーション-4);
      }

      .cls-13 {
        fill: url(#_名称未設定グラデーション_7);
      }

      .cls-14 {
        fill: url(#_名称未設定グラデーション_9);
      }
    </style>
    <linearGradient id="_名称未設定グラデーション" data-name="名称未設定グラデーション" x1="140.56" y1="884.98" x2="242.77" y2="884.98" gradientTransform="translate(238.89 1774.49) scale(1.81 -1.81)" gradientUnits="userSpaceOnUse">
      <stop offset="0" stop-color="#c7b489"/>
      <stop offset="1" stop-color="#693a04"/>
    </linearGradient>
    <linearGradient id="_名称未設定グラデーション_2" data-name="名称未設定グラデーション 2" x1="233.47" y1="880.8" x2="273.36" y2="880.8" gradientTransform="translate(238.89 1774.49) scale(1.81 -1.81)" gradientUnits="userSpaceOnUse">
      <stop offset="0" stop-color="#c7b489"/>
      <stop offset="1" stop-color="#693a04"/>
    </linearGradient>
    <linearGradient id="_名称未設定グラデーション_3" data-name="名称未設定グラデーション 3" x1="280.32" y1="872.96" x2="333.84" y2="872.96" gradientTransform="translate(238.89 1774.49) scale(1.81 -1.81)" gradientUnits="userSpaceOnUse">
      <stop offset="0" stop-color="#c7b489"/>
      <stop offset="1" stop-color="#693a04"/>
    </linearGradient>
    <linearGradient id="_名称未設定グラデーション_4" data-name="名称未設定グラデーション 4" x1="372.63" y1="872.54" x2="449.72" y2="872.54" gradientTransform="translate(284.91 1777.92) scale(1.81 -1.81)" gradientUnits="userSpaceOnUse">
      <stop offset="0" stop-color="#c7b489"/>
      <stop offset="1" stop-color="#693a04"/>
    </linearGradient>
    <linearGradient id="_名称未設定グラデーション_5" data-name="名称未設定グラデーション 5" x1="464.15" y1="872.13" x2="528.32" y2="872.13" gradientTransform="translate(255.41 1774.49) scale(1.81 -1.81)" gradientUnits="userSpaceOnUse">
      <stop offset="0" stop-color="#c7b489"/>
      <stop offset="1" stop-color="#693a04"/>
    </linearGradient>
    <linearGradient id="_名称未設定グラデーション_6" data-name="名称未設定グラデーション 6" x1="540.37" y1="880.97" x2="580.25" y2="880.97" gradientTransform="translate(247.57 1775.25) scale(1.81 -1.81)" gradientUnits="userSpaceOnUse">
      <stop offset="0" stop-color="#c7b489"/>
      <stop offset="1" stop-color="#693a04"/>
    </linearGradient>
    <linearGradient id="_名称未設定グラデーション_7" data-name="名称未設定グラデーション 7" x1="591.35" y1="872.13" x2="655.51" y2="872.13" gradientTransform="translate(238.89 1774.49) scale(1.81 -1.81)" gradientUnits="userSpaceOnUse">
      <stop offset="0" stop-color="#c7b489"/>
      <stop offset="1" stop-color="#693a04"/>
    </linearGradient>
    <linearGradient id="_名称未設定グラデーション_8" data-name="名称未設定グラデーション 8" x1="592.6" y1="872.73" x2="653.24" y2="872.73" gradientTransform="translate(-223.45 1769.71) scale(1.81 -1.81)" gradientUnits="userSpaceOnUse">
      <stop offset="0" stop-color="#c7b489"/>
      <stop offset="1" stop-color="#693a04"/>
    </linearGradient>
    <linearGradient id="_名称未設定グラデーション_9" data-name="名称未設定グラデーション 9" x1="606.62" y1="943.46" x2="641.94" y2="943.46" gradientTransform="translate(-223.45 1769.71) scale(1.81 -1.81)" gradientUnits="userSpaceOnUse">
      <stop offset="0" stop-color="#c7b489"/>
      <stop offset="1" stop-color="#693a04"/>
    </linearGradient>
    <linearGradient id="_名称未設定グラデーション_10" data-name="名称未設定グラデーション 10" x1="592.19" y1="929.17" x2="648.43" y2="929.17" gradientTransform="translate(-223.45 1769.71) scale(1.81 -1.81)" gradientUnits="userSpaceOnUse">
      <stop offset="0" stop-color="#c7b489"/>
      <stop offset="1" stop-color="#693a04"/>
    </linearGradient>
    <linearGradient id="_名称未設定グラデーション-2" data-name="名称未設定グラデーション" x1="569.62" y1="468.45" x2="679.67" y2="468.45" gradientTransform="translate(-223.45 1769.71) scale(1.81 -1.81)" xlink:href="#_名称未設定グラデーション"/>
    <linearGradient id="_名称未設定グラデーション-3" data-name="名称未設定グラデーション" x1="595.07" y1="596.81" x2="659.16" y2="596.81" gradientTransform="translate(-223.45 1769.71) scale(1.81 -1.81)" xlink:href="#_名称未設定グラデーション"/>
    <linearGradient id="_名称未設定グラデーション-4" data-name="名称未設定グラデーション" x1="568.88" y1="570.88" x2="670.95" y2="570.88" gradientTransform="translate(-223.45 1769.71) scale(1.81 -1.81)" xlink:href="#_名称未設定グラデーション"/>
  </defs>
  <g>
    <g>
      <path class="cls-6" d="m545.23,197.98h71.75l10.8,29.34c2.06,5.82,3.09,10.48,3.09,13.27,0,6.75-5.4,9.55-18.52,10.01v5.82h66.35v-5.82c-14.92-.47-19.8-4.89-27-23.99l-54.52-140.65-15.95,1.63-54.78,131.34c-9.77,23.52-18.26,31.67-32.92,31.67v5.82h60.18v-5.82c-14.92-.47-21.6-4.19-21.6-12.58,0-4.42,1.8-11.64,4.89-19.09l8.23-20.96Zm68.41-8.62h-64.81l33.43-81.5,31.38,81.5Z"/>
      <path class="cls-1" d="m699.67,142.09h30.86v-6.29h-30.86c0-15.37.26-24.22.77-34.23l-11.83,3.03c-3.86,21.89-11.57,30.97-26.75,32.14v5.36h16.2v75.45c0,17.23.77,22.36,3.6,27.01,4.37,7.45,13.89,11.41,26.49,11.41,9.26,0,17.49-1.86,25.98-5.82l-2.31-6.05c-5.66,3.03-10.54,4.19-16.2,4.19s-10.03-1.63-12.6-4.89c-2.57-3.26-3.34-9.31-3.34-23.05v-78.24Z"/>
      <path class="cls-8" d="m747.76,135.8v5.12c14.66,0,17.75,3.49,17.75,20.96v62.41c0,21.66-1.54,23.52-18.77,23.98v5.12h58.89v-5.12c-17.23-.47-18.52-2.1-18.52-23.98v-36.56c0-12.34,2.31-21.89,6.94-29.57,5.4-8.85,12.6-13.97,19.29-13.97,4.11,0,5.66,1.4,7.2,6.52,1.54,4.42,3.86,5.82,9.52,5.82,8.23,0,13.63-3.73,13.63-9.55,0-8.15-8.49-14.44-19.55-14.44-15.17,0-29.06,10.01-37.55,27.71v-7.45c0-4.89-.26-7.92-.77-19.56l-38.06,2.56Z"/>
      <path class="cls-4" d="m1034.58,237.8l-30.09-74.52c-2.06-4.66-3.6-10.25-3.6-12.34,0-5.12,5.15-7.68,16.98-7.92v-5.12h-57.87v5.12c11.06.23,14.92,3.26,20.32,16.77l40.63,96.64h14.66l37.04-90.12c7.2-17.47,13.37-22.82,27-23.29v-5.12h-52.72v5.12c13.89.47,19.8,3.26,19.8,9.31,0,2.56-1.29,7.92-3.09,12.34l-29.06,73.12Z"/>
      <path class="cls-2" d="m1210.49,187.73c-.52-13.74-1.54-19.33-4.11-25.61-7.97-18.86-25.72-29.57-49.13-29.57-36.26,0-60.95,25.85-60.95,63.57,0,35.63,25.2,60.31,61.98,60.31,25.2,0,42.69-10.01,54.27-31.44l-5.92-3.03c-10.29,17.7-24.18,26.31-42.44,26.31s-31.12-8.38-38.58-25.61c-4.11-9.55-5.66-18.86-5.92-34.93h90.79Zm-90.27-6.29c1.54-12.11,3.09-18.16,6.95-24.92,6.94-11.88,17.23-18.16,29.57-18.16s20.83,5.82,26.49,17.23c3.35,6.75,4.63,13.51,4.89,25.85h-67.9Z"/>
      <path class="cls-9" d="m1264.34,142.55h30.86v-6.29h-30.86c0-15.37.26-24.22.77-34.23l-11.83,3.03c-3.86,21.89-11.58,30.97-26.75,32.13v5.36h16.2v75.45c0,17.23.77,22.36,3.6,27.01,4.37,7.45,13.89,11.41,26.49,11.41,9.26,0,17.48-1.86,25.97-5.82l-2.31-6.05c-5.65,3.03-10.54,4.19-16.2,4.19s-10.03-1.63-12.6-4.89c-2.57-3.26-3.34-9.31-3.34-23.05v-78.24Z"/>
      <path class="cls-13" d="m1424.4,187.73c-.51-13.74-1.54-19.33-4.11-25.61-7.97-18.86-25.72-29.57-49.12-29.57-36.26,0-60.95,25.85-60.95,63.57,0,35.63,25.2,60.31,61.98,60.31,25.21,0,42.69-10.01,54.27-31.44l-5.92-3.03c-10.29,17.7-24.18,26.31-42.44,26.31s-31.12-8.38-38.58-25.61c-4.11-9.55-5.65-18.86-5.92-34.93h90.79Zm-90.27-6.29c1.54-12.11,3.08-18.16,6.94-24.92,6.95-11.88,17.23-18.16,29.58-18.16s20.83,5.82,26.49,17.23c3.34,6.75,4.63,13.51,4.88,25.85h-67.89Z"/>
    </g>
    <g>
      <g>
        <path class="cls-10" d="m909.74,123.95c-35.13,0-59.6,29.76-59.6,65.44s24.31,63.89,59.99,63.89c20.43,0,34.88-7.31,47.13-26.1,1.09-1.63,1.56-1.91,1.56-2.73,0-2.18-3.59-4.29-4.67-4.29-.82,0-1.79.74-2.34,1.56-9.53,13.07-19.85,19.09-37.01,19.09s-40.12-18-40.12-52.59c0-4.9.51-8.34.78-10.52,23.97-.54,52.39-.43,79.08.39,1.63,0,2.65.47,4.29-1.17,1.36-1.91,1.17-2.77,1.17-4.67-.82-18.25-15.93-48.3-50.25-48.3Zm0,7.79c16.89,0,24.35,16.34,25.71,30.77.27,2.45-.55,4.28-2.73,4.28-19.88,1.36-35.82,1.32-55.7.78,4.9-21.52,16.65-35.84,32.72-35.84"/>
        <path class="cls-5" d="m910.13,253.64c-17.23,0-32.72-6.49-43.64-18.27-10.78-11.63-16.71-27.96-16.71-45.97s5.94-34.13,16.71-46.34c11.08-12.55,26.44-19.46,43.24-19.46h0c19.35,0,31.33,9.48,37.96,17.44,8.76,10.51,12.28,23.01,12.65,31.21,0,.24,0,.44,0,.64.02,1.49.03,2.48-1.24,4.26-1.47,1.48-2.51,1.42-3.72,1.35-.27-.02-.55-.03-.85-.03-26.34-.81-54.29-.95-78.76-.4l-.04.34c-.28,2.15-.69,5.41-.69,9.82,0,36.03,23.25,52.23,39.77,52.23s26.78-5.31,36.72-18.94c.54-.81,1.6-1.7,2.63-1.7,1.16,0,5.03,2.19,5.03,4.64,0,.69-.28,1.07-.8,1.77-.22.3-.49.66-.82,1.16-12,18.4-26.19,26.26-47.43,26.26Zm-.39-129.33c-33.77,0-59.24,27.98-59.24,65.09s24.52,63.53,59.63,63.53c20.97,0,34.98-7.76,46.83-25.94.34-.51.62-.88.84-1.19.51-.69.66-.91.66-1.34,0-1.93-3.4-3.93-4.32-3.93-.63,0-1.51.6-2.04,1.4-9.97,13.67-20.77,19.25-37.3,19.25-9.52,0-19.64-5.03-27.07-13.44-6.12-6.93-13.41-19.42-13.41-39.5,0-4.46.42-7.74.7-9.91l.08-.65c.02-.18.17-.31.35-.31,24.56-.56,52.65-.42,79.1.39h0c.31,0,.6.02.88.03,1.16.07,1.93.11,3.14-1.1,1.1-1.54,1.09-2.34,1.07-3.79,0-.2,0-.41,0-.63-.89-19.9-16.96-47.95-49.89-47.95Zm-10.41,43.98c-7.21,0-14.49-.14-22.32-.35-.11,0-.21-.05-.27-.14s-.09-.19-.07-.3c5.15-22.61,17.52-36.12,33.07-36.12,17.07,0,24.71,16.75,26.06,31.1.18,1.64-.11,2.94-.84,3.76-.55.61-1.3.92-2.24.92-12,.82-22.61,1.13-33.39,1.13Zm-21.87-1.06c19.34.53,35.37.57,55.23-.79.76,0,1.33-.23,1.74-.68.58-.65.82-1.79.66-3.21-1.39-14.73-8.78-30.46-25.35-30.46-15.1,0-27.15,13.12-32.28,35.13Z"/>
      </g>
      <g>
        <path class="cls-14" d="m891.85,110.22s-32.89,13.06-1.64-5.89c14.86-9.01,18.64-7.81,27.77-28.06,10.43-23.15,2.74-70.62,2.74-70.62,0,0,53.81,84.24-20.55,103.58-50.02,13.01-8.31.99-8.31.99Z"/>
        <path class="cls-5" d="m875.6,115.63c-.33,0-.36-.11-.4-.27-.05-.19-.09-.34,1.25-.85,0,0,0-.01-.01-.02-.3-.6-.85-1.72,13.58-10.46,2.67-1.62,4.98-2.91,7.03-4.05,9.31-5.19,13.16-7.34,20.6-23.85,10.27-22.79,2.79-69.95,2.71-70.42-.03-.17.07-.33.23-.39.16-.06.34,0,.43.14.28.44,28.03,44.47,15.67,75.98-5.41,13.79-17.67,23.26-36.43,28.14-8.71,2.27-15.2,3.92-19.29,4.91-3.49.85-4.82,1.14-5.35,1.14Zm45.72-108.28c1.25,8.82,6.2,48.61-3.02,69.07-7.54,16.73-11.45,18.91-20.9,24.18-2.04,1.14-4.35,2.42-7.01,4.03-12.49,7.57-13.34,9.22-13.3,9.55.03.02.06.05.11.06,2.07-.72,6.24-1.98,14.55-4.37.19-.05.38.05.44.23.06.18-.03.38-.21.45-.99.39-2.1.83-3.27,1.26,3.05-.78,6.78-1.74,11.36-2.93,18.53-4.82,30.63-14.14,35.95-27.71,10.94-27.89-9.98-65.84-14.69-73.82Z"/>
      </g>
      <g>
        <path class="cls-3" d="m893.21,113.55c6.36-3.34,13.61-6.77,21.98-10,60-23.16,27.09-89.06,27.09-89.06,0,0,10.93,56.23-49.57,87.47-42.58,21.98-43.32,56.28-43.32,56.28,0,0,.56-21.97,43.82-44.68"/>
        <path class="cls-5" d="m849.4,158.59s0,0,0,0c-.2,0-.35-.17-.35-.36h0s0-.01,0-.02c.02-.47.38-9.02,5.73-20.02,5.05-10.38,15.7-25.14,37.78-36.54,31.12-16.07,42.89-38.88,47.28-55.19,4.76-17.68,2.13-31.75,2.1-31.89-.03-.18.07-.35.24-.41.17-.06.35.02.43.18.16.32,15.89,32.38,5.41,59.44-5.29,13.65-16.29,23.78-32.7,30.12-7.45,2.88-14.63,6.14-21.95,9.99-42.52,22.33-43.62,44.16-43.63,44.38,0,.19-.16.35-.36.35Zm93.59-141.7c.54,4.83,1.18,16.23-2.45,29.72-4.43,16.46-16.29,39.48-47.65,55.67-21.89,11.3-32.45,25.92-37.45,36.19-2.54,5.22-3.95,9.87-4.72,13.36.85-2.11,2.14-4.68,4.08-7.6,5.08-7.64,15.85-19.21,38.26-30.98l.17.32-.17-.32c7.34-3.85,14.54-7.13,22.02-10.02,16.21-6.26,27.08-16.25,32.29-29.71,8.78-22.65-1.05-48.9-4.37-56.62Z"/>
      </g>
    </g>
  </g>
  <g>
    <circle class="cls-15" cx="907.52" cy="813.7" r="261.01"/>
    <line class="cls-15" x1="848.1" y1="282.44" x2="661.11" y2="726.21"/>
    <line class="cls-15" x1="1154.17" y1="727.47" x2="966.94" y2="282.44"/>
    <g>
      <g>
        <path class="cls-11" d="m916.67,803.69c-63.76,0-108.16,54.01-108.16,118.76s44.12,115.94,108.87,115.94c37.07,0,63.3-13.26,85.54-47.36,1.98-2.96,2.83-3.47,2.83-4.95,0-3.95-6.51-7.78-8.48-7.78-1.48,0-3.25,1.34-4.24,2.83-17.3,23.72-36.02,34.64-67.16,34.64s-72.81-32.66-72.81-95.44c0-8.9.92-15.13,1.41-19.09,43.49-.99,95.07-.78,143.51.71,2.97,0,4.81.85,7.78-2.12,2.47-3.46,2.12-5.02,2.12-8.48-1.48-33.12-28.92-87.66-91.19-87.66Zm0,14.14c30.64,0,44.19,29.65,46.66,55.85.5,4.45-.99,7.78-4.95,7.78-36.08,2.47-65.01,2.4-101.09,1.41,8.9-39.05,30.22-65.04,59.38-65.04"/>
        <path class="cls-5" d="m917.38,1039.04c-31.26,0-59.38-11.77-79.19-33.15-19.56-21.11-30.33-50.74-30.33-83.43s10.77-61.94,30.33-84.09c20.11-22.78,47.98-35.32,78.48-35.32h0c35.12,0,56.85,17.21,68.89,31.64,15.9,19.06,22.28,41.76,22.95,56.63,0,.43,0,.8,0,1.15.03,2.71.06,4.5-2.25,7.73-2.68,2.69-4.56,2.58-6.76,2.45-.49-.03-1-.06-1.55-.06-47.79-1.46-98.52-1.72-142.93-.72l-.08.63c-.5,3.91-1.26,9.81-1.26,17.83,0,65.38,42.2,94.79,72.17,94.79s48.6-9.64,66.63-34.37c.99-1.48,2.91-3.09,4.77-3.09,2.11,0,9.13,3.98,9.13,8.42,0,1.24-.52,1.94-1.45,3.21-.4.54-.89,1.2-1.49,2.1-21.78,33.4-47.53,47.65-86.08,47.65Zm-.71-234.7c-61.29,0-107.51,50.78-107.51,118.12s44.5,115.29,108.22,115.29c38.06,0,63.48-14.08,84.99-47.07.61-.92,1.12-1.6,1.53-2.15.93-1.26,1.2-1.66,1.2-2.44,0-3.5-6.18-7.13-7.84-7.13-1.14,0-2.74,1.09-3.7,2.54-18.09,24.81-37.7,34.93-67.7,34.93-17.28,0-35.65-9.12-49.13-24.4-11.1-12.58-24.34-35.24-24.34-71.69,0-8.1.76-14.05,1.27-17.99l.15-1.17c.04-.32.31-.56.63-.57,44.57-1.01,95.55-.76,143.54.71h0c.56,0,1.09.03,1.6.06,2.11.12,3.5.2,5.69-1.99,1.99-2.8,1.97-4.25,1.94-6.88,0-.36,0-.74,0-1.14-1.62-36.11-30.78-87.01-90.55-87.01Zm-18.89,79.82c-13.08,0-26.3-.25-40.51-.64-.19,0-.38-.1-.49-.25s-.16-.35-.12-.54c9.35-41.04,31.79-65.54,60.01-65.54,30.98,0,44.85,30.4,47.3,56.43.33,2.97-.19,5.34-1.52,6.82-.99,1.11-2.36,1.67-4.07,1.67-21.77,1.49-41.03,2.05-60.6,2.05Zm-39.68-1.92c35.09.95,64.19,1.04,100.24-1.43,1.37,0,2.42-.42,3.15-1.24,1.06-1.18,1.48-3.25,1.2-5.82-2.52-26.73-15.93-55.27-46.01-55.27-27.41,0-49.26,23.82-58.57,63.76Z"/>
      </g>
      <g>
        <path class="cls-7" d="m884.2,778.77s-59.69,23.7-2.98-10.68c26.97-16.35,33.83-14.16,50.39-50.91,18.93-42.01,4.96-128.17,4.96-128.17,0,0,97.65,152.87-37.3,187.97-90.77,23.61-15.08,1.79-15.08,1.79Z"/>
        <path class="cls-5" d="m854.72,788.59c-.59,0-.64-.2-.73-.49-.1-.35-.17-.62,2.27-1.54,0-.01-.01-.03-.02-.04-.54-1.09-1.55-3.11,24.64-18.99,4.84-2.94,9.05-5.28,12.75-7.35,16.89-9.42,23.88-13.31,37.38-43.28,18.63-41.35,5.06-126.94,4.92-127.8-.05-.3.12-.6.41-.71.28-.11.61,0,.78.26.51.8,50.87,80.71,28.44,137.88-9.82,25.03-32.07,42.21-66.12,51.07-15.81,4.11-27.59,7.11-35.01,8.91-6.34,1.54-8.75,2.07-9.72,2.07Zm82.97-196.5c2.27,16.01,11.24,88.22-5.49,125.35-13.68,30.36-20.78,34.32-37.93,43.88-3.7,2.06-7.89,4.4-12.71,7.32-22.67,13.74-24.21,16.74-24.15,17.33.05.04.11.08.19.11,3.76-1.3,11.32-3.58,26.41-7.93.34-.1.68.09.79.41.11.33-.05.68-.37.81-1.8.71-3.82,1.5-5.94,2.29,5.53-1.41,12.31-3.15,20.62-5.31,33.63-8.75,55.58-25.66,65.24-50.28,19.86-50.61-18.1-119.49-26.67-133.97Z"/>
      </g>
      <g>
        <path class="cls-12" d="m886.68,784.81c11.54-6.06,24.71-12.29,39.89-18.15,108.88-42.04,49.17-161.62,49.17-161.62,0,0,19.83,102.05-89.96,158.73-77.27,39.89-78.62,102.13-78.62,102.13,0,0,1.02-39.87,79.52-81.09"/>
        <path class="cls-5" d="m807.16,866.55s-.01,0-.02,0c-.36,0-.64-.3-.63-.66h0s0-.02,0-.04c.03-.85.68-16.37,10.4-36.34,9.16-18.83,28.5-45.63,68.57-66.32,56.48-29.16,77.83-70.56,85.81-100.16,8.64-32.09,3.86-57.62,3.81-57.88-.06-.32.12-.63.43-.74.31-.11.64.03.79.32.29.58,28.84,58.76,9.82,107.86-9.59,24.77-29.56,43.16-59.34,54.65-13.53,5.22-26.55,11.15-39.83,18.12-77.16,40.53-79.16,80.14-79.17,80.53-.01.35-.3.63-.65.63Zm169.84-257.16c.98,8.76,2.13,29.46-4.45,53.93-8.03,29.87-29.56,71.64-86.48,101.03-39.72,20.51-58.89,47.03-67.97,65.67-4.61,9.47-7.17,17.92-8.57,24.24,1.55-3.84,3.88-8.5,7.41-13.8,9.23-13.86,28.76-34.86,69.43-56.22l.3.57-.3-.57c13.32-6.99,26.39-12.94,39.96-18.18,29.42-11.36,49.14-29.5,58.59-53.91,15.93-41.11-1.91-88.74-7.93-102.75Z"/>
      </g>
    </g>
  </g>
</svg>